<?xml version="1.0" encoding="UTF-8" standalone="no"?>
<!-- Generator: Adobe Illustrator 16.0.0, SVG Export Plug-In . SVG Version: 6.00 Build 0)  -->

<svg
   xmlns:dc="http://purl.org/dc/elements/1.1/"
   xmlns:cc="http://creativecommons.org/ns#"
   xmlns:rdf="http://www.w3.org/1999/02/22-rdf-syntax-ns#"
   xmlns:svg="http://www.w3.org/2000/svg"
   xmlns="http://www.w3.org/2000/svg"
   xmlns:sodipodi="http://sodipodi.sourceforge.net/DTD/sodipodi-0.dtd"
   xmlns:inkscape="http://www.inkscape.org/namespaces/inkscape"
   version="1.1"
   id="Capa_1"
   x="0px"
   y="0px"
   width="32px"
   height="32px"
   viewBox="0 0 32 32"
   style="enable-background:new 0 0 32 32;"
   xml:space="preserve"
   sodipodi:docname="aquarius.svg"
   inkscape:version="0.92.1 r15371"><metadata
     id="metadata15"><rdf:RDF><cc:Work
         rdf:about=""><dc:format>image/svg+xml</dc:format><dc:type
           rdf:resource="http://purl.org/dc/dcmitype/StillImage" /></cc:Work></rdf:RDF></metadata><defs
     id="defs13" /><sodipodi:namedview
     pagecolor="#ffffff"
     bordercolor="#666666"
     borderopacity="1"
     objecttolerance="10"
     gridtolerance="10"
     guidetolerance="10"
     inkscape:pageopacity="0"
     inkscape:pageshadow="2"
     inkscape:window-width="797"
     inkscape:window-height="480"
     id="namedview11"
     showgrid="false"
     inkscape:zoom="7.375"
     inkscape:cx="16"
     inkscape:cy="16"
     inkscape:window-x="263"
     inkscape:window-y="112"
     inkscape:window-maximized="0"
     inkscape:current-layer="Capa_1" /><g
     id="g8"
     style="fill:#000000"><g
       id="g6"
       style="fill:#000000"><path
         d="M 1.631,13.91 c 1.703,0 2.789,-1.314 3.662,-2.376 0.873,-1.057 1.455,-1.698 2.181,-1.698 0.382,0 0.688,0.412 1.356,1.574 0.775,1.35 1.944,3.386 4.486,3.386 2.623,0 3.706,-2.061 4.42,-3.422 0.312,-0.596 0.703,-1.336 0.947,-1.336 0.422,0 1.055,1.006 1.516,1.737 0.867,1.373 1.943,3.086 3.988,3.086 1.994,0 3.479,-1.663 4.797,-3.132 0.473,-0.528 1.177,-1.312 1.514,-1.493 C 31.339,10.172 32,9.468 32,8.611 32,7.712 31.271,6.979 30.37,6.979 c -1.511,0 -2.63,1.25 -3.813,2.574 -0.641,0.716 -1.832,2.045 -2.373,2.045 C 23.901,11.531 23.266,10.52 22.959,10.036 22.093,8.66 20.906,6.774 18.684,6.774 c -2.215,0 -3.188,1.854 -3.833,3.079 -0.725,1.38 -0.996,1.678 -1.533,1.678 -0.561,0 -0.905,-0.438 -1.658,-1.747 C 10.879,8.429 9.811,6.571 7.474,6.571 5.158,6.571 3.781,8.24 2.777,9.46 2.435,9.872 1.867,10.564 1.614,10.648 0.722,10.658 0,11.385 0,12.279 0,13.18 0.73,13.91 1.631,13.91 Z"
         id="path2"
         inkscape:connector-curvature="0"
         style="fill:#000000" /><path
         d="M 30.37,17.55 c -1.511,0 -2.63,1.25 -3.813,2.572 -0.641,0.717 -1.832,2.046 -2.373,2.046 -0.283,-0.067 -0.918,-1.077 -1.225,-1.562 -0.866,-1.377 -2.053,-3.262 -4.275,-3.262 -2.215,0 -3.188,1.854 -3.833,3.08 -0.725,1.379 -0.996,1.676 -1.533,1.676 -0.561,0 -0.905,-0.438 -1.658,-1.746 -0.779,-1.355 -1.848,-3.215 -4.185,-3.215 -2.315,0 -3.692,1.67 -4.696,2.89 -0.342,0.414 -0.91,1.104 -1.163,1.188 C 0.722,21.228 0,21.953 0,22.847 c 0,0.899 0.73,1.631 1.631,1.631 1.703,0 2.789,-1.314 3.662,-2.375 0.873,-1.058 1.455,-1.699 2.181,-1.699 0.382,0 0.688,0.413 1.356,1.574 0.775,1.351 1.944,3.386 4.486,3.386 2.623,0 3.706,-2.06 4.42,-3.42 0.312,-0.597 0.703,-1.337 0.947,-1.337 0.422,0 1.055,1.006 1.516,1.736 0.867,1.375 1.943,3.086 3.988,3.086 1.994,0 3.479,-1.662 4.797,-3.131 0.473,-0.527 1.177,-1.312 1.514,-1.494 C 31.339,20.74 32,20.036 32,19.179 32,18.278 31.271,17.55 30.37,17.55 Z"
         id="path4"
         inkscape:connector-curvature="0"
         style="fill:#000000" /></g></g></svg>