<?xml version="1.0" encoding="iso-8859-1"?>
<!-- Generator: Adobe Illustrator 16.0.0, SVG Export Plug-In . SVG Version: 6.00 Build 0)  -->
<!DOCTYPE svg PUBLIC "-//W3C//DTD SVG 1.1//EN" "http://www.w3.org/Graphics/SVG/1.1/DTD/svg11.dtd">
<svg version="1.1" id="Capa_1" xmlns="http://www.w3.org/2000/svg" xmlns:xlink="http://www.w3.org/1999/xlink" x="0px" y="0px"
	 width="32.001px" height="32px" viewBox="0 0 32.001 32" style="enable-background:new 0 0 32.001 32;" xml:space="preserve">
<g>
	<path d="M31.983,2.058c-0.01-0.243-0.051-0.489-0.146-0.718c-0.104-0.251-0.253-0.474-0.439-0.664
		c-0.004-0.006-0.006-0.012-0.01-0.017l0,0c-0.193-0.194-0.425-0.347-0.68-0.453C30.453,0.1,30.184,0.043,29.91,0.043
		c-0.001,0-0.001,0-0.002,0H18.747c-1.155,0-2.093,0.937-2.093,2.093c0,1.157,0.938,2.093,2.093,2.093h6.099l-9.998,9.967
		l-3.593-3.729c-0.802-0.83-2.128-0.856-2.959-0.053c-0.833,0.801-0.858,2.125-0.056,2.959l3.642,3.777L0.615,28.383
		c-0.818,0.814-0.82,2.141-0.004,2.959c0.408,0.411,0.944,0.615,1.481,0.615c0.534,0,1.069-0.204,1.478-0.611l11.215-11.181
		l4.11,4.265c0.41,0.426,0.957,0.641,1.508,0.641c0.521,0,1.047-0.192,1.451-0.586c0.832-0.801,0.856-2.127,0.056-2.959
		l-4.158-4.315l10.062-10.03v5.944c0,1.157,0.938,2.094,2.096,2.094c1.154,0,2.092-0.937,2.092-2.094V2.136
		C32,2.107,31.985,2.085,31.983,2.058z"/>
</g>
</svg>
